<svg width="86" height="198" viewBox="0 0 86 198" fill="none" xmlns="http://www.w3.org/2000/svg">
<path d="M18.5454 185.15C12.7428 175.184 9.73585 103.781 9.73585 103.781L75.7727 103.781C77.2233 102.248 75.8453 170.585 66.4162 185.15C56.9871 199.714 24.3479 195.115 18.5454 185.15Z" fill="#DFBDAA"/>
<circle cx="26" cy="179.96" r="4" fill="black" fill-opacity="0.5"/>
<circle cx="26" cy="179.96" r="4" fill="black" fill-opacity="0.65"/>
<circle cx="61" cy="179.96" r="4" fill="black" fill-opacity="0.5"/>
<circle cx="61" cy="179.96" r="4" fill="black" fill-opacity="0.65"/>
<circle cx="36" cy="171.96" r="4" fill="black" fill-opacity="0.5"/>
<circle cx="36" cy="171.96" r="4" fill="black" fill-opacity="0.65"/>
<circle cx="51" cy="171.96" r="4" fill="black" fill-opacity="0.5"/>
<circle cx="51" cy="171.96" r="4" fill="black" fill-opacity="0.65"/>
<circle cx="38" cy="184.96" r="4" fill="black" fill-opacity="0.5"/>
<circle cx="38" cy="184.96" r="4" fill="black" fill-opacity="0.65"/>
<circle cx="50" cy="184.96" r="4" fill="black" fill-opacity="0.5"/>
<circle cx="50" cy="184.96" r="4" fill="black" fill-opacity="0.65"/>
<circle cx="25" cy="162.96" r="4" fill="black" fill-opacity="0.5"/>
<circle cx="25" cy="162.96" r="4" fill="black" fill-opacity="0.65"/>
<circle cx="62" cy="163.96" r="4" fill="black" fill-opacity="0.5"/>
<circle cx="62" cy="163.96" r="4" fill="black" fill-opacity="0.65"/>
<circle cx="44" cy="160.96" r="4" fill="black" fill-opacity="0.5"/>
<circle cx="44" cy="160.96" r="4" fill="black" fill-opacity="0.65"/>
<ellipse cx="42.7542" cy="103.755" rx="33.0184" ry="4.94437" fill="#EBC8B5"/>
<path d="M32.5 103.96L43 70.9598H52L41.5 103.96C37.4698 105.614 36.6711 105.621 32.5 103.96Z" fill="#84A9D5" stroke="#84A9D5"/>
<path d="M15.4151 186.986C8.92451 176.273 4.05658 71.617 4.05658 71.617L42.1887 65.8486C42.1887 65.8486 79.5094 73.2651 81.132 71.617C82.7547 69.9689 79.5094 171.328 68.9622 186.986C58.4151 202.643 21.9056 197.698 15.4151 186.986Z" fill="white" fill-opacity="0.4" stroke="white"/>
<line x1="84.8774" y1="67.4967" x2="84.8774" y2="70.793" stroke="#BFC5B3"/>
<line x1="0.5" y1="67.4967" x2="0.5" y2="70.793" stroke="#BFC5B3"/>
<ellipse cx="43" cy="70.793" rx="43" ry="11.5369" fill="#BFC5B3"/>
<ellipse cx="43" cy="67.4967" rx="43" ry="11.5369" fill="#D5DBC6"/>
<path d="M64.5 0.925903L43 70.9259H52.5L73 1.93552L64.5 0.925903Z" fill="#84A9D5"/>
<ellipse cx="47.7646" cy="70.8548" rx="4.72402" ry="1.63312" transform="rotate(0.351162 47.7646 70.8548)" fill="#84A9D4"/>
<path d="M64.5 0.925903L43 70.9259H52.5L73 1.93552L64.5 0.925903Z" fill="#84A9D5"/>
<ellipse cx="68.7559" cy="1.42872" rx="4.28235" ry="1" transform="rotate(5.81496 68.7559 1.42872)" fill="#587596"/>
</svg>
