<svg width="48" height="47" viewBox="0 0 48 47" fill="none" xmlns="http://www.w3.org/2000/svg">
<circle cx="19" cy="16" r="4" fill="black" fill-opacity="0.5"/>
<circle cx="19" cy="16" r="4" fill="black" fill-opacity="0.65"/>
<path d="M18.5271 13C17.2263 14.1172 16.6851 14.8883 16.0271 16.5C16.0387 15.5994 15.8053 15.1941 16.5271 14C17.3049 13.141 17.7322 13.1675 18.5271 13Z" fill="white" fill-opacity="0.7"/>
<circle cx="32" cy="16" r="4" fill="black" fill-opacity="0.5"/>
<circle cx="32" cy="16" r="4" fill="black" fill-opacity="0.65"/>
<circle cx="25" cy="4" r="4" fill="black" fill-opacity="0.5"/>
<circle cx="25" cy="4" r="4" fill="black" fill-opacity="0.65"/>
<path d="M24.5271 1C23.2263 2.11725 22.6851 2.88833 22.0271 4.5C22.0387 3.59942 21.8053 3.19407 22.5271 2C23.3049 1.14101 23.7322 1.1675 24.5271 1Z" fill="white" fill-opacity="0.7"/>
<path d="M31.5271 13C30.2263 14.1172 29.6851 14.8883 29.0271 16.5C29.0387 15.5994 28.8053 15.1941 29.5271 14C30.3049 13.141 30.7322 13.1675 31.5271 13Z" fill="white" fill-opacity="0.7"/>
<path d="M47.5826 29H5.84348H0L2.50435 31.1176L0.834783 33.5882L2.92174 35.3529L1.25217 37.8235L3.75652 40.2941L0.834783 42.7647L3.75652 44.5294L1.25217 47H5.84348H47.5826L45.913 44.8824L48 42.7647L45.4957 41L48 38.5294L45.913 36.4118L47.5826 33.5882L45.0783 31.1176L47.5826 29Z" fill="#C2AF9D"/>
<path d="M18 40C20.625 42.3153 22.375 43.1554 25.875 42.9768C29.375 42.3153 29.375 41.6538 32 40" stroke="#3F3B3B" stroke-linecap="round" stroke-linejoin="round"/>
<path d="M20.58 33.5697C20.58 33.9318 20.527 34.3093 20.9827 34.3093C21.3739 34.3093 21.0413 33.3479 20.691 33.3479C20.2857 33.3479 20.3881 33.9368 20.5882 34.1655C21.1689 34.829 21.0568 33.4859 20.9375 33.1877C20.8028 32.8509 20.408 33.0522 20.2596 33.2411C20.0371 33.5242 19.9197 34.0671 20.0624 34.4079C20.2872 34.9449 21.1747 34.8328 21.2292 34.2517C21.2584 33.9396 20.7001 32.429 20.4321 33.2329C20.3165 33.5798 20.2735 34.3596 20.7279 33.7916" stroke="#3F3B3B" stroke-linecap="round" stroke-linejoin="round"/>
<path d="M29.58 33.5697C29.58 33.9318 29.527 34.3093 29.9827 34.3093C30.3739 34.3093 30.0413 33.3479 29.691 33.3479C29.2857 33.3479 29.3881 33.9368 29.5882 34.1655C30.1689 34.829 30.0568 33.4859 29.9375 33.1877C29.8028 32.8509 29.408 33.0522 29.2596 33.2411C29.0371 33.5242 28.9197 34.0671 29.0624 34.4079C29.2872 34.9449 30.1747 34.8328 30.2292 34.2517C30.2584 33.9396 29.7001 32.429 29.4321 33.2329C29.3165 33.5798 29.2735 34.3596 29.7279 33.7916" stroke="#3F3B3B" stroke-linecap="round" stroke-linejoin="round"/>
</svg>
