<svg width="246" height="66" viewBox="0 0 246 66" fill="none" xmlns="http://www.w3.org/2000/svg">
<g filter="url(#filter0_d)">
<path fill-rule="evenodd" clip-rule="evenodd" d="M242 24C242 15.5992 242 11.3988 240.365 8.19014C238.927 5.36771 236.632 3.073 233.81 1.6349C230.601 0 226.401 0 218 0H32C23.5992 0 19.3988 0 16.1901 1.6349C13.3677 3.073 11.073 5.36771 9.6349 8.19014C8 11.3988 8 15.5992 8 24V34C8 42.4008 8 46.6012 9.6349 49.8099C11.073 52.6323 13.3677 54.927 16.1901 56.3651C19.3988 58 23.5992 58 32 58H218C226.401 58 230.601 58 233.81 56.3651C236.632 54.927 238.927 52.6323 240.365 49.8099C242 46.6012 242 42.4008 242 34V24Z" fill="white"/>
<path fill-rule="evenodd" clip-rule="evenodd" d="M8.97146 44H24C24 51.732 17.732 58 10 58H4V57.6709C5.43115 56.4697 6.61579 54.9871 7.47376 53.3032C8.5962 51.1003 8.89299 48.3966 8.97146 44Z" fill="white"/>
<path d="M28.0093 31.1899L28.2417 32.7837L28.582 31.3477L30.9727 22.9141H32.3174L34.6499 31.3477L34.9819 32.8086L35.2393 31.1816L37.1152 22.9141H38.7173L35.7871 35H34.3345L31.8442 26.1929L31.6533 25.2715L31.4624 26.1929L28.8809 35H27.4282L24.5063 22.9141H26.1001L28.0093 31.1899ZM41.3806 27.106C42.0612 26.2703 42.9467 25.8525 44.0368 25.8525C45.9349 25.8525 46.8923 26.9233 46.9089 29.0649V35H45.3733V29.0566C45.3677 28.4092 45.2183 27.9305 44.925 27.6206C44.6372 27.3107 44.1862 27.1558 43.572 27.1558C43.0739 27.1558 42.6368 27.2886 42.2605 27.5542C41.8842 27.8198 41.5909 28.1685 41.3806 28.6001V35H39.8449V22.25H41.3806V27.106ZM54.3451 35C54.2566 34.8229 54.1847 34.5075 54.1293 34.0537C53.4154 34.7952 52.5632 35.166 51.5727 35.166C50.6873 35.166 49.9596 34.917 49.3896 34.4189C48.8251 33.9154 48.5429 33.279 48.5429 32.5098C48.5429 31.5745 48.8971 30.8496 49.6054 30.335C50.3193 29.8148 51.3209 29.5547 52.6103 29.5547H54.1044V28.8491C54.1044 28.3123 53.9439 27.8862 53.623 27.5708C53.302 27.2498 52.8289 27.0894 52.2035 27.0894C51.6557 27.0894 51.1964 27.2277 50.8256 27.5044C50.4548 27.7811 50.2694 28.1159 50.2694 28.5088H48.7255C48.7255 28.0605 48.8832 27.6289 49.1986 27.2139C49.5196 26.7933 49.9513 26.4613 50.4936 26.2178C51.0414 25.9743 51.6418 25.8525 52.2948 25.8525C53.3297 25.8525 54.1404 26.1126 54.727 26.6328C55.3136 27.1475 55.6179 27.8586 55.6401 28.7661V32.8999C55.6401 33.7244 55.7452 34.3802 55.9555 34.8672V35H54.3451ZM51.7968 33.8296C52.2782 33.8296 52.7348 33.7051 53.1664 33.4561C53.5981 33.207 53.9107 32.8833 54.1044 32.4849V30.6421H52.9008C51.0193 30.6421 50.0785 31.1927 50.0785 32.2939C50.0785 32.7754 50.239 33.1517 50.56 33.4229C50.8809 33.694 51.2932 33.8296 51.7968 33.8296ZM59.7228 23.8438V26.0186H61.3995V27.2056H59.7228V32.7754C59.7228 33.1351 59.7975 33.4062 59.9469 33.5889C60.0963 33.766 60.3509 33.8545 60.7106 33.8545C60.8877 33.8545 61.1311 33.8213 61.441 33.7549V35C61.0371 35.1107 60.6442 35.166 60.2623 35.166C59.5761 35.166 59.0587 34.9585 58.7101 34.5435C58.3615 34.1284 58.1871 33.5391 58.1871 32.7754V27.2056H56.5519V26.0186H58.1871V23.8438H59.7228ZM66.2281 30.4346C66.2281 29.0566 66.5546 27.9499 67.2076 27.1143C67.8606 26.2731 68.7155 25.8525 69.7725 25.8525C70.8239 25.8525 71.6568 26.2122 72.271 26.9316V22.25H73.8067V35H72.3955L72.3208 34.0371C71.7066 34.7897 70.8516 35.166 69.7559 35.166C68.7155 35.166 67.8661 34.7399 67.2076 33.8877C66.5546 33.0355 66.2281 31.9232 66.2281 30.5508V30.4346ZM67.7637 30.6089C67.7637 31.6271 67.974 32.424 68.3946 32.9995C68.8151 33.575 69.3962 33.8628 70.1377 33.8628C71.1117 33.8628 71.8228 33.4256 72.271 32.5513V28.4258C71.8117 27.5791 71.1062 27.1558 70.1543 27.1558C69.4017 27.1558 68.8151 27.4463 68.3946 28.0273C67.974 28.6084 67.7637 29.4689 67.7637 30.6089ZM75.3826 30.4263C75.3826 29.5464 75.5541 28.755 75.8972 28.0522C76.2458 27.3494 76.7273 26.8071 77.3416 26.4253C77.9613 26.0435 78.6669 25.8525 79.4583 25.8525C80.6812 25.8525 81.669 26.2759 82.4216 27.1226C83.1798 27.9692 83.5588 29.0954 83.5588 30.501V30.6089C83.5588 31.4832 83.3901 32.269 83.0525 32.9663C82.7205 33.658 82.2418 34.1976 81.6165 34.585C80.9967 34.9723 80.2828 35.166 79.4749 35.166C78.2574 35.166 77.2696 34.7427 76.5115 33.896C75.7589 33.0493 75.3826 31.9287 75.3826 30.5342V30.4263ZM76.9265 30.6089C76.9265 31.605 77.1562 32.4046 77.6155 33.0078C78.0803 33.611 78.7001 33.9126 79.4749 33.9126C80.2551 33.9126 80.8749 33.6082 81.3342 32.9995C81.7935 32.3853 82.0232 31.5275 82.0232 30.4263C82.0232 29.4412 81.788 28.6444 81.3176 28.0356C80.8528 27.4214 80.233 27.1143 79.4583 27.1143C78.7001 27.1143 78.0886 27.4159 77.6238 28.019C77.1589 28.6222 76.9265 29.4855 76.9265 30.6089ZM91.8239 32.7505L93.9157 26.0186H95.5592L91.9484 36.3862C91.3895 37.8804 90.5013 38.6274 89.2839 38.6274L88.9933 38.6025L88.4206 38.4946V37.2495L88.8356 37.2827C89.3558 37.2827 89.7598 37.1776 90.0475 36.9673C90.3408 36.757 90.5815 36.3724 90.7697 35.8135L91.11 34.9004L87.9059 26.0186H89.5827L91.8239 32.7505ZM95.9896 30.4263C95.9896 29.5464 96.1612 28.755 96.5043 28.0522C96.8529 27.3494 97.3344 26.8071 97.9486 26.4253C98.5684 26.0435 99.274 25.8525 100.065 25.8525C101.288 25.8525 102.276 26.2759 103.029 27.1226C103.787 27.9692 104.166 29.0954 104.166 30.501V30.6089C104.166 31.4832 103.997 32.269 103.66 32.9663C103.328 33.658 102.849 34.1976 102.224 34.585C101.604 34.9723 100.89 35.166 100.082 35.166C98.8645 35.166 97.8767 34.7427 97.1185 33.896C96.3659 33.0493 95.9896 31.9287 95.9896 30.5342V30.4263ZM97.5336 30.6089C97.5336 31.605 97.7632 32.4046 98.2225 33.0078C98.6874 33.611 99.3072 33.9126 100.082 33.9126C100.862 33.9126 101.482 33.6082 101.941 32.9995C102.401 32.3853 102.63 31.5275 102.63 30.4263C102.63 29.4412 102.395 28.6444 101.925 28.0356C101.46 27.4214 100.84 27.1143 100.065 27.1143C99.3072 27.1143 98.6957 27.4159 98.2308 28.019C97.766 28.6222 97.5336 29.4855 97.5336 30.6089ZM111.229 34.1118C110.631 34.8146 109.754 35.166 108.597 35.166C107.64 35.166 106.909 34.8893 106.406 34.3359C105.908 33.777 105.656 32.9525 105.65 31.8623V26.0186H107.186V31.8208C107.186 33.1821 107.739 33.8628 108.846 33.8628C110.019 33.8628 110.8 33.4256 111.187 32.5513V26.0186H112.723V35H111.262L111.229 34.1118ZM119.22 35V27.2056H117.8V26.0186H119.22V25.0972C119.22 24.1343 119.477 23.39 119.992 22.8643C120.506 22.3385 121.234 22.0757 122.175 22.0757C122.529 22.0757 122.88 22.1227 123.229 22.2168L123.146 23.4619C122.886 23.4121 122.609 23.3872 122.316 23.3872C121.818 23.3872 121.433 23.5339 121.162 23.8271C120.891 24.1149 120.755 24.5299 120.755 25.0723V26.0186H122.673V27.2056H120.755V35H119.22ZM127.494 35.166C126.277 35.166 125.286 34.7676 124.523 33.9707C123.759 33.1683 123.377 32.0975 123.377 30.7583V30.4761C123.377 29.5851 123.546 28.791 123.883 28.0938C124.227 27.391 124.703 26.8431 125.311 26.4502C125.925 26.0518 126.59 25.8525 127.303 25.8525C128.471 25.8525 129.379 26.2371 130.026 27.0063C130.674 27.7756 130.997 28.8768 130.997 30.3101V30.9492H124.913C124.935 31.8346 125.192 32.5513 125.685 33.0991C126.183 33.6414 126.814 33.9126 127.577 33.9126C128.12 33.9126 128.579 33.8019 128.955 33.5806C129.332 33.3592 129.661 33.0659 129.943 32.7007L130.881 33.4312C130.128 34.5877 129 35.166 127.494 35.166ZM127.303 27.1143C126.684 27.1143 126.163 27.3411 125.743 27.7949C125.322 28.2432 125.062 28.874 124.963 29.6875H129.462V29.5713C129.417 28.791 129.207 28.1878 128.831 27.7617C128.454 27.3301 127.945 27.1143 127.303 27.1143ZM136.101 35.166C134.884 35.166 133.893 34.7676 133.129 33.9707C132.366 33.1683 131.984 32.0975 131.984 30.7583V30.4761C131.984 29.5851 132.153 28.791 132.49 28.0938C132.833 27.391 133.309 26.8431 133.918 26.4502C134.532 26.0518 135.196 25.8525 135.91 25.8525C137.078 25.8525 137.985 26.2371 138.633 27.0063C139.28 27.7756 139.604 28.8768 139.604 30.3101V30.9492H133.519C133.542 31.8346 133.799 32.5513 134.291 33.0991C134.789 33.6414 135.42 33.9126 136.184 33.9126C136.726 33.9126 137.186 33.8019 137.562 33.5806C137.938 33.3592 138.267 33.0659 138.55 32.7007L139.488 33.4312C138.735 34.5877 137.606 35.166 136.101 35.166ZM135.91 27.1143C135.29 27.1143 134.77 27.3411 134.35 27.7949C133.929 28.2432 133.669 28.874 133.569 29.6875H138.068V29.5713C138.024 28.791 137.814 28.1878 137.437 27.7617C137.061 27.3301 136.552 27.1143 135.91 27.1143ZM142.649 35H141.113V22.25H142.649V35ZM150.184 35H148.648V22.25H150.184V35ZM153.909 35H152.374V26.0186H153.909V35ZM152.249 23.6362C152.249 23.3872 152.324 23.1769 152.473 23.0054C152.628 22.8338 152.855 22.748 153.154 22.748C153.453 22.748 153.68 22.8338 153.835 23.0054C153.99 23.1769 154.067 23.3872 154.067 23.6362C154.067 23.8853 153.99 24.0928 153.835 24.2588C153.68 24.4248 153.453 24.5078 153.154 24.5078C152.855 24.5078 152.628 24.4248 152.473 24.2588C152.324 24.0928 152.249 23.8853 152.249 23.6362ZM158.474 30.8413L157.511 31.8457V35H155.975V22.25H157.511V29.9614L158.332 28.9736L161.13 26.0186H162.998L159.503 29.7705L163.404 35H161.603L158.474 30.8413ZM167.736 35.166C166.519 35.166 165.528 34.7676 164.764 33.9707C164.001 33.1683 163.619 32.0975 163.619 30.7583V30.4761C163.619 29.5851 163.788 28.791 164.125 28.0938C164.468 27.391 164.944 26.8431 165.553 26.4502C166.167 26.0518 166.831 25.8525 167.545 25.8525C168.713 25.8525 169.62 26.2371 170.268 27.0063C170.915 27.7756 171.239 28.8768 171.239 30.3101V30.9492H165.154C165.177 31.8346 165.434 32.5513 165.926 33.0991C166.424 33.6414 167.055 33.9126 167.819 33.9126C168.361 33.9126 168.821 33.8019 169.197 33.5806C169.573 33.3592 169.902 33.0659 170.185 32.7007L171.123 33.4312C170.37 34.5877 169.241 35.166 167.736 35.166ZM167.545 27.1143C166.925 27.1143 166.405 27.3411 165.985 27.7949C165.564 28.2432 165.304 28.874 165.204 29.6875H169.703V29.5713C169.659 28.791 169.449 28.1878 169.072 27.7617C168.696 27.3301 168.187 27.1143 167.545 27.1143ZM178.508 23.8438V26.0186H180.185V27.2056H178.508V32.7754C178.508 33.1351 178.583 33.4062 178.732 33.5889C178.881 33.766 179.136 33.8545 179.496 33.8545C179.673 33.8545 179.916 33.8213 180.226 33.7549V35C179.822 35.1107 179.429 35.166 179.047 35.166C178.361 35.166 177.844 34.9585 177.495 34.5435C177.147 34.1284 176.972 33.5391 176.972 32.7754V27.2056H175.337V26.0186H176.972V23.8438H178.508ZM181.005 30.4263C181.005 29.5464 181.177 28.755 181.52 28.0522C181.868 27.3494 182.35 26.8071 182.964 26.4253C183.584 26.0435 184.289 25.8525 185.081 25.8525C186.304 25.8525 187.292 26.2759 188.044 27.1226C188.802 27.9692 189.181 29.0954 189.181 30.501V30.6089C189.181 31.4832 189.013 32.269 188.675 32.9663C188.343 33.658 187.864 34.1976 187.239 34.585C186.619 34.9723 185.905 35.166 185.097 35.166C183.88 35.166 182.892 34.7427 182.134 33.896C181.381 33.0493 181.005 31.9287 181.005 30.5342V30.4263ZM182.549 30.6089C182.549 31.605 182.779 32.4046 183.238 33.0078C183.703 33.611 184.323 33.9126 185.097 33.9126C185.878 33.9126 186.498 33.6082 186.957 32.9995C187.416 32.3853 187.646 31.5275 187.646 30.4263C187.646 29.4412 187.411 28.6444 186.94 28.0356C186.475 27.4214 185.856 27.1143 185.081 27.1143C184.323 27.1143 183.711 27.4159 183.246 28.019C182.782 28.6222 182.549 29.4855 182.549 30.6089ZM190.326 30.4346C190.326 29.0566 190.652 27.9499 191.305 27.1143C191.958 26.2731 192.813 25.8525 193.87 25.8525C194.922 25.8525 195.754 26.2122 196.369 26.9316V22.25H197.904V35H196.493L196.418 34.0371C195.804 34.7897 194.949 35.166 193.854 35.166C192.813 35.166 191.964 34.7399 191.305 33.8877C190.652 33.0355 190.326 31.9232 190.326 30.5508V30.4346ZM191.861 30.6089C191.861 31.6271 192.072 32.424 192.492 32.9995C192.913 33.575 193.494 33.8628 194.235 33.8628C195.209 33.8628 195.92 33.4256 196.369 32.5513V28.4258C195.909 27.5791 195.204 27.1558 194.252 27.1558C193.499 27.1558 192.913 27.4463 192.492 28.0273C192.072 28.6084 191.861 29.4689 191.861 30.6089ZM205.432 35C205.343 34.8229 205.271 34.5075 205.216 34.0537C204.502 34.7952 203.65 35.166 202.659 35.166C201.774 35.166 201.046 34.917 200.476 34.4189C199.912 33.9154 199.63 33.279 199.63 32.5098C199.63 31.5745 199.984 30.8496 200.692 30.335C201.406 29.8148 202.408 29.5547 203.697 29.5547H205.191V28.8491C205.191 28.3123 205.031 27.8862 204.71 27.5708C204.389 27.2498 203.916 27.0894 203.29 27.0894C202.742 27.0894 202.283 27.2277 201.912 27.5044C201.542 27.7811 201.356 28.1159 201.356 28.5088H199.812C199.812 28.0605 199.97 27.6289 200.285 27.2139C200.606 26.7933 201.038 26.4613 201.58 26.2178C202.128 25.9743 202.729 25.8525 203.382 25.8525C204.416 25.8525 205.227 26.1126 205.814 26.6328C206.4 27.1475 206.705 27.8586 206.727 28.7661V32.8999C206.727 33.7244 206.832 34.3802 207.042 34.8672V35H205.432ZM202.883 33.8296C203.365 33.8296 203.821 33.7051 204.253 33.4561C204.685 33.207 204.997 32.8833 205.191 32.4849V30.6421H203.988C202.106 30.6421 201.165 31.1927 201.165 32.2939C201.165 32.7754 201.326 33.1517 201.647 33.4229C201.968 33.694 202.38 33.8296 202.883 33.8296ZM211.532 32.7505L213.623 26.0186H215.267L211.656 36.3862C211.097 37.8804 210.209 38.6274 208.992 38.6274L208.701 38.6025L208.128 38.4946V37.2495L208.543 37.2827C209.064 37.2827 209.468 37.1776 209.755 36.9673C210.049 36.757 210.289 36.3724 210.477 35.8135L210.818 34.9004L207.614 26.0186H209.29L211.532 32.7505ZM218.038 31.5967C218.049 30.9382 218.124 30.418 218.262 30.0361C218.401 29.6543 218.683 29.231 219.109 28.7661L220.196 27.6455C220.661 27.1198 220.894 26.5553 220.894 25.9521C220.894 25.3711 220.741 24.9173 220.437 24.5908C220.133 24.2588 219.69 24.0928 219.109 24.0928C218.545 24.0928 218.091 24.2422 217.748 24.541C217.405 24.8398 217.233 25.241 217.233 25.7446H215.697C215.708 24.8481 216.027 24.126 216.652 23.5781C217.283 23.0247 218.102 22.748 219.109 22.748C220.155 22.748 220.968 23.0303 221.549 23.5947C222.136 24.1536 222.429 24.9229 222.429 25.9023C222.429 26.8708 221.981 27.8254 221.085 28.7661L220.18 29.6626C219.776 30.1108 219.574 30.7555 219.574 31.5967H218.038ZM217.972 34.228C217.972 33.979 218.046 33.7715 218.196 33.6055C218.351 33.4339 218.578 33.3481 218.877 33.3481C219.175 33.3481 219.402 33.4339 219.557 33.6055C219.712 33.7715 219.79 33.979 219.79 34.228C219.79 34.4771 219.712 34.6846 219.557 34.8506C219.402 35.0111 219.175 35.0913 218.877 35.0913C218.578 35.0913 218.351 35.0111 218.196 34.8506C218.046 34.6846 217.972 34.4771 217.972 34.228Z" fill="#3F3B3B"/>
</g>
<defs>
<filter id="filter0_d" x="0" y="0" width="246" height="66" filterUnits="userSpaceOnUse" color-interpolation-filters="sRGB">
<feFlood flood-opacity="0" result="BackgroundImageFix"/>
<feColorMatrix in="SourceAlpha" type="matrix" values="0 0 0 0 0 0 0 0 0 0 0 0 0 0 0 0 0 0 127 0"/>
<feOffset dy="4"/>
<feGaussianBlur stdDeviation="2"/>
<feColorMatrix type="matrix" values="0 0 0 0 0 0 0 0 0 0 0 0 0 0 0 0 0 0 0.25 0"/>
<feBlend mode="normal" in2="BackgroundImageFix" result="effect1_dropShadow"/>
<feBlend mode="normal" in="SourceGraphic" in2="effect1_dropShadow" result="shape"/>
</filter>
</defs>
</svg>
