<svg width="246" height="66" viewBox="0 0 246 66" fill="none" xmlns="http://www.w3.org/2000/svg">
<g filter="url(#filter0_d)">
<path fill-rule="evenodd" clip-rule="evenodd" d="M242 24C242 15.5992 242 11.3988 240.365 8.19014C238.927 5.36771 236.632 3.073 233.81 1.6349C230.601 0 226.401 0 218 0H32C23.5992 0 19.3988 0 16.1901 1.6349C13.3677 3.073 11.073 5.36771 9.6349 8.19014C8 11.3988 8 15.5992 8 24V34C8 42.4008 8 46.6012 9.6349 49.8099C11.073 52.6323 13.3677 54.927 16.1901 56.3651C19.3988 58 23.5992 58 32 58H218C226.401 58 230.601 58 233.81 56.3651C236.632 54.927 238.927 52.6323 240.365 49.8099C242 46.6012 242 42.4008 242 34V24Z" fill="white"/>
<path fill-rule="evenodd" clip-rule="evenodd" d="M8.97146 44H24C24 51.732 17.732 58 10 58H4V57.6709C5.43115 56.4697 6.61579 54.9871 7.47376 53.3032C8.5962 51.1003 8.89299 48.3966 8.97146 44Z" fill="white"/>
<path d="M46.6914 35H45.0894V29.4136H38.9966V35H37.4028V22.9141H38.9966V28.1104H45.0894V22.9141H46.6914V35ZM48.4665 30.4263C48.4665 29.5464 48.6381 28.755 48.9812 28.0522C49.3298 27.3494 49.8112 26.8071 50.4255 26.4253C51.0453 26.0435 51.7509 25.8525 52.5422 25.8525C53.7652 25.8525 54.753 26.2759 55.5056 27.1226C56.2637 27.9692 56.6428 29.0954 56.6428 30.501V30.6089C56.6428 31.4832 56.474 32.269 56.1364 32.9663C55.8044 33.658 55.3257 34.1976 54.7004 34.585C54.0806 34.9723 53.3667 35.166 52.5588 35.166C51.3413 35.166 50.3536 34.7427 49.5954 33.896C48.8428 33.0493 48.4665 31.9287 48.4665 30.5342V30.4263ZM50.0105 30.6089C50.0105 31.605 50.2401 32.4046 50.6994 33.0078C51.1643 33.611 51.7841 33.9126 52.5588 33.9126C53.3391 33.9126 53.9589 33.6082 54.4182 32.9995C54.8775 32.3853 55.1071 31.5275 55.1071 30.4263C55.1071 29.4412 54.8719 28.6444 54.4016 28.0356C53.9367 27.4214 53.3169 27.1143 52.5422 27.1143C51.7841 27.1143 51.1726 27.4159 50.7077 28.019C50.2429 28.6222 50.0105 29.4855 50.0105 30.6089ZM66.1127 32.8833L67.8393 26.0186H69.3749L66.7602 35H65.5151L63.3319 28.1934L61.2069 35H59.9618L57.3554 26.0186H58.8827L60.6508 32.7422L62.7426 26.0186H63.9794L66.1127 32.8833ZM73.971 30.4346C73.971 29.0566 74.2975 27.9499 74.9505 27.1143C75.6035 26.2731 76.4585 25.8525 77.5155 25.8525C78.5669 25.8525 79.3997 26.2122 80.014 26.9316V22.25H81.5496V35H80.1385L80.0638 34.0371C79.4495 34.7897 78.5946 35.166 77.4989 35.166C76.4585 35.166 75.609 34.7399 74.9505 33.8877C74.2975 33.0355 73.971 31.9232 73.971 30.5508V30.4346ZM75.5067 30.6089C75.5067 31.6271 75.717 32.424 76.1375 32.9995C76.5581 33.575 77.1392 33.8628 77.8807 33.8628C78.8547 33.8628 79.5658 33.4256 80.014 32.5513V28.4258C79.5547 27.5791 78.8491 27.1558 77.8973 27.1558C77.1447 27.1558 76.5581 27.4463 76.1375 28.0273C75.717 28.6084 75.5067 29.4689 75.5067 30.6089ZM83.1255 30.4263C83.1255 29.5464 83.2971 28.755 83.6402 28.0522C83.9888 27.3494 84.4703 26.8071 85.0845 26.4253C85.7043 26.0435 86.4099 25.8525 87.2012 25.8525C88.4242 25.8525 89.412 26.2759 90.1646 27.1226C90.9227 27.9692 91.3018 29.0954 91.3018 30.501V30.6089C91.3018 31.4832 91.133 32.269 90.7954 32.9663C90.4634 33.658 89.9847 34.1976 89.3594 34.585C88.7396 34.9723 88.0258 35.166 87.2178 35.166C86.0004 35.166 85.0126 34.7427 84.2544 33.896C83.5018 33.0493 83.1255 31.9287 83.1255 30.5342V30.4263ZM84.6695 30.6089C84.6695 31.605 84.8991 32.4046 85.3584 33.0078C85.8233 33.611 86.4431 33.9126 87.2178 33.9126C87.9981 33.9126 88.6179 33.6082 89.0772 32.9995C89.5365 32.3853 89.7662 31.5275 89.7662 30.4263C89.7662 29.4412 89.531 28.6444 89.0606 28.0356C88.5957 27.4214 87.9759 27.1143 87.2012 27.1143C86.4431 27.1143 85.8316 27.4159 85.3667 28.019C84.9019 28.6222 84.6695 29.4855 84.6695 30.6089ZM99.5669 32.7505L101.659 26.0186H103.302L99.6914 36.3862C99.1324 37.8804 98.2443 38.6274 97.0268 38.6274L96.7363 38.6025L96.1635 38.4946V37.2495L96.5786 37.2827C97.0988 37.2827 97.5027 37.1776 97.7905 36.9673C98.0838 36.757 98.3245 36.3724 98.5127 35.8135L98.853 34.9004L95.6489 26.0186H97.3256L99.5669 32.7505ZM103.733 30.4263C103.733 29.5464 103.904 28.755 104.247 28.0522C104.596 27.3494 105.077 26.8071 105.692 26.4253C106.311 26.0435 107.017 25.8525 107.808 25.8525C109.031 25.8525 110.019 26.2759 110.772 27.1226C111.53 27.9692 111.909 29.0954 111.909 30.501V30.6089C111.909 31.4832 111.74 32.269 111.403 32.9663C111.07 33.658 110.592 34.1976 109.966 34.585C109.347 34.9723 108.633 35.166 107.825 35.166C106.607 35.166 105.62 34.7427 104.861 33.896C104.109 33.0493 103.733 31.9287 103.733 30.5342V30.4263ZM105.277 30.6089C105.277 31.605 105.506 32.4046 105.965 33.0078C106.43 33.611 107.05 33.9126 107.825 33.9126C108.605 33.9126 109.225 33.6082 109.684 32.9995C110.144 32.3853 110.373 31.5275 110.373 30.4263C110.373 29.4412 110.138 28.6444 109.668 28.0356C109.203 27.4214 108.583 27.1143 107.808 27.1143C107.05 27.1143 106.439 27.4159 105.974 28.019C105.509 28.6222 105.277 29.4855 105.277 30.6089ZM118.972 34.1118C118.374 34.8146 117.497 35.166 116.34 35.166C115.383 35.166 114.652 34.8893 114.149 34.3359C113.651 33.777 113.399 32.9525 113.393 31.8623V26.0186H114.929V31.8208C114.929 33.1821 115.482 33.8628 116.589 33.8628C117.762 33.8628 118.543 33.4256 118.93 32.5513V26.0186H120.466V35H119.005L118.972 34.1118ZM126.963 35V27.2056H125.543V26.0186H126.963V25.0972C126.963 24.1343 127.22 23.39 127.735 22.8643C128.249 22.3385 128.977 22.0757 129.918 22.0757C130.272 22.0757 130.623 22.1227 130.972 22.2168L130.889 23.4619C130.629 23.4121 130.352 23.3872 130.059 23.3872C129.561 23.3872 129.176 23.5339 128.905 23.8271C128.634 24.1149 128.498 24.5299 128.498 25.0723V26.0186H130.416V27.2056H128.498V35H126.963ZM135.237 35.166C134.02 35.166 133.029 34.7676 132.266 33.9707C131.502 33.1683 131.12 32.0975 131.12 30.7583V30.4761C131.12 29.5851 131.289 28.791 131.626 28.0938C131.97 27.391 132.445 26.8431 133.054 26.4502C133.668 26.0518 134.333 25.8525 135.046 25.8525C136.214 25.8525 137.122 26.2371 137.769 27.0063C138.417 27.7756 138.74 28.8768 138.74 30.3101V30.9492H132.656C132.678 31.8346 132.935 32.5513 133.428 33.0991C133.926 33.6414 134.557 33.9126 135.32 33.9126C135.863 33.9126 136.322 33.8019 136.698 33.5806C137.075 33.3592 137.404 33.0659 137.686 32.7007L138.624 33.4312C137.871 34.5877 136.743 35.166 135.237 35.166ZM135.046 27.1143C134.427 27.1143 133.906 27.3411 133.486 27.7949C133.065 28.2432 132.805 28.874 132.706 29.6875H137.205V29.5713C137.16 28.791 136.95 28.1878 136.574 27.7617C136.197 27.3301 135.688 27.1143 135.046 27.1143ZM143.844 35.166C142.627 35.166 141.636 34.7676 140.872 33.9707C140.109 33.1683 139.727 32.0975 139.727 30.7583V30.4761C139.727 29.5851 139.896 28.791 140.233 28.0938C140.576 27.391 141.052 26.8431 141.661 26.4502C142.275 26.0518 142.939 25.8525 143.653 25.8525C144.821 25.8525 145.728 26.2371 146.376 27.0063C147.023 27.7756 147.347 28.8768 147.347 30.3101V30.9492H141.262C141.285 31.8346 141.542 32.5513 142.034 33.0991C142.532 33.6414 143.163 33.9126 143.927 33.9126C144.469 33.9126 144.929 33.8019 145.305 33.5806C145.681 33.3592 146.01 33.0659 146.293 32.7007L147.231 33.4312C146.478 34.5877 145.349 35.166 143.844 35.166ZM143.653 27.1143C143.033 27.1143 142.513 27.3411 142.092 27.7949C141.672 28.2432 141.412 28.874 141.312 29.6875H145.811V29.5713C145.767 28.791 145.557 28.1878 145.18 27.7617C144.804 27.3301 144.295 27.1143 143.653 27.1143ZM150.392 35H148.856V22.25H150.392V35ZM158.342 23.8438V26.0186H160.018V27.2056H158.342V32.7754C158.342 33.1351 158.416 33.4062 158.566 33.5889C158.715 33.766 158.97 33.8545 159.329 33.8545C159.507 33.8545 159.75 33.8213 160.06 33.7549V35C159.656 35.1107 159.263 35.166 158.881 35.166C158.195 35.166 157.678 34.9585 157.329 34.5435C156.98 34.1284 156.806 33.5391 156.806 32.7754V27.2056H155.171V26.0186H156.806V23.8438H158.342ZM160.839 30.4263C160.839 29.5464 161.01 28.755 161.354 28.0522C161.702 27.3494 162.184 26.8071 162.798 26.4253C163.418 26.0435 164.123 25.8525 164.915 25.8525C166.138 25.8525 167.125 26.2759 167.878 27.1226C168.636 27.9692 169.015 29.0954 169.015 30.501V30.6089C169.015 31.4832 168.846 32.269 168.509 32.9663C168.177 33.658 167.698 34.1976 167.073 34.585C166.453 34.9723 165.739 35.166 164.931 35.166C163.714 35.166 162.726 34.7427 161.968 33.896C161.215 33.0493 160.839 31.9287 160.839 30.5342V30.4263ZM162.383 30.6089C162.383 31.605 162.613 32.4046 163.072 33.0078C163.537 33.611 164.156 33.9126 164.931 33.9126C165.711 33.9126 166.331 33.6082 166.791 32.9995C167.25 32.3853 167.48 31.5275 167.48 30.4263C167.48 29.4412 167.244 28.6444 166.774 28.0356C166.309 27.4214 165.689 27.1143 164.915 27.1143C164.156 27.1143 163.545 27.4159 163.08 28.019C162.615 28.6222 162.383 29.4855 162.383 30.6089ZM170.159 30.4346C170.159 29.0566 170.486 27.9499 171.139 27.1143C171.792 26.2731 172.647 25.8525 173.704 25.8525C174.755 25.8525 175.588 26.2122 176.202 26.9316V22.25H177.738V35H176.327L176.252 34.0371C175.638 34.7897 174.783 35.166 173.687 35.166C172.647 35.166 171.797 34.7399 171.139 33.8877C170.486 33.0355 170.159 31.9232 170.159 30.5508V30.4346ZM171.695 30.6089C171.695 31.6271 171.905 32.424 172.326 32.9995C172.747 33.575 173.328 33.8628 174.069 33.8628C175.043 33.8628 175.754 33.4256 176.202 32.5513V28.4258C175.743 27.5791 175.038 27.1558 174.086 27.1558C173.333 27.1558 172.747 27.4463 172.326 28.0273C171.905 28.6084 171.695 29.4689 171.695 30.6089ZM185.266 35C185.177 34.8229 185.105 34.5075 185.05 34.0537C184.336 34.7952 183.484 35.166 182.493 35.166C181.608 35.166 180.88 34.917 180.31 34.4189C179.746 33.9154 179.463 33.279 179.463 32.5098C179.463 31.5745 179.817 30.8496 180.526 30.335C181.24 29.8148 182.241 29.5547 183.531 29.5547H185.025V28.8491C185.025 28.3123 184.864 27.8862 184.543 27.5708C184.222 27.2498 183.749 27.0894 183.124 27.0894C182.576 27.0894 182.117 27.2277 181.746 27.5044C181.375 27.7811 181.19 28.1159 181.19 28.5088H179.646C179.646 28.0605 179.804 27.6289 180.119 27.2139C180.44 26.7933 180.872 26.4613 181.414 26.2178C181.962 25.9743 182.562 25.8525 183.215 25.8525C184.25 25.8525 185.061 26.1126 185.647 26.6328C186.234 27.1475 186.538 27.8586 186.561 28.7661V32.8999C186.561 33.7244 186.666 34.3802 186.876 34.8672V35H185.266ZM182.717 33.8296C183.199 33.8296 183.655 33.7051 184.087 33.4561C184.519 33.207 184.831 32.8833 185.025 32.4849V30.6421H183.821C181.94 30.6421 180.999 31.1927 180.999 32.2939C180.999 32.7754 181.159 33.1517 181.48 33.4229C181.801 33.694 182.214 33.8296 182.717 33.8296ZM191.365 32.7505L193.457 26.0186H195.101L191.49 36.3862C190.931 37.8804 190.043 38.6274 188.825 38.6274L188.535 38.6025L187.962 38.4946V37.2495L188.377 37.2827C188.897 37.2827 189.301 37.1776 189.589 36.9673C189.882 36.757 190.123 36.3724 190.311 35.8135L190.652 34.9004L187.447 26.0186H189.124L191.365 32.7505ZM197.872 31.5967C197.883 30.9382 197.958 30.418 198.096 30.0361C198.234 29.6543 198.517 29.231 198.943 28.7661L200.03 27.6455C200.495 27.1198 200.727 26.5553 200.727 25.9521C200.727 25.3711 200.575 24.9173 200.271 24.5908C199.967 24.2588 199.524 24.0928 198.943 24.0928C198.378 24.0928 197.925 24.2422 197.581 24.541C197.238 24.8398 197.067 25.241 197.067 25.7446H195.531C195.542 24.8481 195.86 24.126 196.486 23.5781C197.117 23.0247 197.936 22.748 198.943 22.748C199.989 22.748 200.802 23.0303 201.383 23.5947C201.97 24.1536 202.263 24.9229 202.263 25.9023C202.263 26.8708 201.815 27.8254 200.918 28.7661L200.014 29.6626C199.61 30.1108 199.408 30.7555 199.408 31.5967H197.872ZM197.806 34.228C197.806 33.979 197.88 33.7715 198.03 33.6055C198.185 33.4339 198.411 33.3481 198.71 33.3481C199.009 33.3481 199.236 33.4339 199.391 33.6055C199.546 33.7715 199.623 33.979 199.623 34.228C199.623 34.4771 199.546 34.6846 199.391 34.8506C199.236 35.0111 199.009 35.0913 198.71 35.0913C198.411 35.0913 198.185 35.0111 198.03 34.8506C197.88 34.6846 197.806 34.4771 197.806 34.228Z" fill="#3F3B3B"/>
</g>
<defs>
<filter id="filter0_d" x="0" y="0" width="246" height="66" filterUnits="userSpaceOnUse" color-interpolation-filters="sRGB">
<feFlood flood-opacity="0" result="BackgroundImageFix"/>
<feColorMatrix in="SourceAlpha" type="matrix" values="0 0 0 0 0 0 0 0 0 0 0 0 0 0 0 0 0 0 127 0"/>
<feOffset dy="4"/>
<feGaussianBlur stdDeviation="2"/>
<feColorMatrix type="matrix" values="0 0 0 0 0 0 0 0 0 0 0 0 0 0 0 0 0 0 0.25 0"/>
<feBlend mode="normal" in2="BackgroundImageFix" result="effect1_dropShadow"/>
<feBlend mode="normal" in="SourceGraphic" in2="effect1_dropShadow" result="shape"/>
</filter>
</defs>
</svg>
