<svg width="86" height="198" viewBox="0 0 86 198" fill="none" xmlns="http://www.w3.org/2000/svg">
<path d="M18.5454 185.15C12.7428 175.184 9.73585 103.781 9.73585 103.781L75.7727 103.781C77.2233 102.248 75.8453 170.585 66.4162 185.15C56.9871 199.714 24.3479 195.115 18.5454 185.15Z" fill="#DFBDAA"/>
<path d="M33.9972 181.573C36.4589 180.326 37.7907 179.54 40.0572 177.941C40.7507 177.927 41.7767 178.466 43.914 179.691L37.7446 183.122L33.9972 181.573Z" fill="#EEEBDF"/>
<path d="M34.3891 183.717C34.2771 182.876 34.2091 182.405 33.9966 181.561C35.1176 182.012 37.7716 183.12 37.7716 183.12C37.8057 183.129 37.7737 184.166 37.871 185.062L34.3891 183.717Z" fill="#DDDACE"/>
<path d="M43.914 179.691L37.753 183.121L37.8524 185.063L43.8183 181.753C43.8224 180.957 43.8266 180.511 43.914 179.691Z" fill="#CECABA"/>
<path d="M25.0851 182.519C24.9718 179.762 24.809 178.224 24.2944 175.499C24.5692 174.862 25.4853 174.152 27.4865 172.715L28.0486 179.752L25.0851 182.519Z" fill="#EEEBDF"/>
<path d="M27.1979 183.052C26.3867 182.805 25.9299 182.672 25.0739 182.515C25.9489 181.682 28.0587 179.727 28.0587 179.727C28.0806 179.699 29.0112 180.159 29.8668 180.442L27.1979 183.052Z" fill="#DDDACE"/>
<path d="M27.4864 172.715L28.0517 179.744L29.8598 180.459L29.3224 173.657C28.6005 173.324 28.196 173.135 27.4864 172.715Z" fill="#CECABA"/>
<path d="M41.2605 167.983C39.8732 170.369 39.1833 171.753 38.1512 174.328C37.577 174.717 36.423 174.823 33.9632 174.957L37.2738 168.723L41.2605 167.983Z" fill="#CECABA"/>
<path d="M39.7657 166.398C40.3169 167.042 40.6302 167.401 41.2676 167.993C40.0819 168.225 37.2518 168.738 37.2518 168.738C37.2185 168.75 36.6811 167.862 36.1121 167.163L39.7657 166.398Z" fill="#EEEBDF"/>
<path d="M33.9632 174.957L37.2668 168.728L36.1271 167.152L32.9221 173.176C33.3512 173.845 33.5906 174.222 33.9632 174.957Z" fill="#DDDACE"/>
<path d="M27.197 157.846C28.8365 160.065 29.8336 161.248 31.7876 163.216C31.9171 163.898 31.5565 164.999 30.7047 167.31L26.2943 161.799L27.197 157.846Z" fill="#CECABA"/>
<path d="M25.1489 158.589C25.9589 158.339 26.4121 158.193 27.2089 157.843C26.9513 159.023 26.3002 161.825 26.3002 161.825C26.2974 161.86 25.2693 162.001 24.4019 162.246L25.1489 158.589Z" fill="#EEEBDF"/>
<path d="M30.7047 167.31L26.2962 161.807L24.3979 162.228L28.6561 167.559C29.441 167.431 29.8819 167.361 30.7047 167.31Z" fill="#DDDACE"/>
<path d="M47.0765 152.789C46.8298 155.537 46.791 157.083 46.9462 159.853C46.5908 160.448 45.5902 161.033 43.4189 162.197L43.7779 155.147L47.0765 152.789Z" fill="#CECABA"/>
<path d="M45.0511 151.986C45.8233 152.336 46.2588 152.528 47.0872 152.795C46.1111 153.507 43.7647 155.17 43.7647 155.17C43.7394 155.195 42.8766 154.618 42.0651 154.226L45.0511 151.986Z" fill="#EEEBDF"/>
<path d="M43.419 162.197L43.7738 155.154L42.0742 154.209L41.7214 161.023C42.3937 161.448 42.7701 161.688 43.419 162.197Z" fill="#DDDACE"/>
<path d="M63.5639 153.399C62.0085 156.194 61.2393 157.813 60.0993 160.818C59.4427 161.282 58.1083 161.433 55.2623 161.65L58.9624 154.353L63.5639 153.399Z" fill="#CECABA"/>
<path d="M61.7985 151.602C62.4508 152.334 62.8214 152.74 63.5724 153.41C62.2041 153.708 58.9373 154.372 58.9373 154.372C58.899 154.386 58.2575 153.372 57.5834 152.577L61.7985 151.602Z" fill="#EEEBDF"/>
<path d="M55.2624 161.65L58.9546 154.359L57.6007 152.564L54.0183 159.614C54.5297 160.378 54.815 160.808 55.2624 161.65Z" fill="#DDDACE"/>
<path d="M50.1695 182.824C52.6311 181.577 53.963 180.791 56.2295 179.192C56.923 179.178 57.9489 179.717 60.0863 180.942L53.9168 184.373L50.1695 182.824Z" fill="#EEEBDF"/>
<path d="M50.5614 184.968C50.4493 184.127 50.3813 183.656 50.1688 182.812C51.2898 183.263 53.9439 184.371 53.9439 184.371C53.978 184.38 53.946 185.417 54.0432 186.313L50.5614 184.968Z" fill="#DDDACE"/>
<path d="M60.0862 180.942L53.9253 184.372L54.0246 186.314L59.9905 183.003C59.9947 182.208 59.9989 181.762 60.0862 180.942Z" fill="#CECABA"/>
<path d="M47.0851 176.519C46.9718 173.762 46.809 172.224 46.2944 169.499C46.5692 168.862 47.4853 168.152 49.4865 166.715L50.0486 173.752L47.0851 176.519Z" fill="#EEEBDF"/>
<path d="M49.1979 177.052C48.3867 176.805 47.9299 176.672 47.0739 176.515C47.9489 175.682 50.0587 173.727 50.0587 173.727C50.0806 173.699 51.0112 174.159 51.8668 174.442L49.1979 177.052Z" fill="#DDDACE"/>
<path d="M49.4864 166.715L50.0517 173.744L51.8598 174.459L51.3224 167.657C50.6005 167.324 50.196 167.135 49.4864 166.715Z" fill="#CECABA"/>
<path d="M66.2605 165.983C64.8732 168.369 64.1833 169.753 63.1512 172.328C62.577 172.717 61.423 172.823 58.9632 172.957L62.2738 166.723L66.2605 165.983Z" fill="#CECABA"/>
<path d="M64.7657 164.398C65.3169 165.042 65.6302 165.401 66.2676 165.993C65.0819 166.225 62.2518 166.738 62.2518 166.738C62.2185 166.75 61.6811 165.862 61.1121 165.163L64.7657 164.398Z" fill="#EEEBDF"/>
<path d="M58.9632 172.957L62.2668 166.728L61.1271 165.152L57.9221 171.176C58.3512 171.845 58.5906 172.222 58.9632 172.957Z" fill="#DDDACE"/>
<ellipse cx="42.7542" cy="103.755" rx="33.0184" ry="4.94437" fill="#EBC8B5"/>
<path d="M32.5 103.96L43 70.9598H52L41.5 103.96C37.4698 105.614 36.6711 105.621 32.5 103.96Z" fill="#84A9D5" stroke="#84A9D5"/>
<path d="M15.4151 186.986C8.92457 176.273 4.05664 71.617 4.05664 71.617L42.1887 65.8486C42.1887 65.8486 79.5094 73.2651 81.1321 71.617C82.7548 69.9689 79.5094 171.328 68.9623 186.986C58.4151 202.643 21.9057 197.698 15.4151 186.986Z" fill="white" fill-opacity="0.4" stroke="white"/>
<line x1="84.8774" y1="67.4967" x2="84.8774" y2="70.793" stroke="#BFC5B3"/>
<line x1="0.5" y1="67.4967" x2="0.5" y2="70.793" stroke="#BFC5B3"/>
<ellipse cx="43" cy="70.793" rx="43" ry="11.5369" fill="#BFC5B3"/>
<ellipse cx="43" cy="67.4967" rx="43" ry="11.5369" fill="#D5DBC6"/>
<path d="M64.5 0.925903L43 70.9259H52.5L73 1.93552L64.5 0.925903Z" fill="#84A9D5"/>
<ellipse cx="47.7646" cy="70.8548" rx="4.72402" ry="1.63312" transform="rotate(0.351162 47.7646 70.8548)" fill="#84A9D4"/>
<path d="M64.5 0.925903L43 70.9259H52.5L73 1.93552L64.5 0.925903Z" fill="#84A9D5"/>
<ellipse cx="68.7559" cy="1.42872" rx="4.28235" ry="1" transform="rotate(5.81496 68.7559 1.42872)" fill="#587596"/>
</svg>
