<svg width="48" height="51" viewBox="0 0 48 51" fill="none" xmlns="http://www.w3.org/2000/svg">
<path d="M24.6917 20.6655C27.9114 19.1107 29.6534 18.1303 32.6178 16.1367C33.5248 16.1191 34.8668 16.7911 37.6623 18.3185L29.593 22.5962L24.6917 20.6655Z" fill="#EEEBDF"/>
<path d="M25.2043 23.338C25.0576 22.2901 24.9687 21.7027 24.6908 20.6504C26.157 21.2122 29.6283 22.5946 29.6283 22.5946C29.6729 22.6052 29.6311 23.8987 29.7582 25.0159L25.2043 23.338Z" fill="#DDDACE"/>
<path d="M37.6622 18.3185L29.6041 22.5957L29.734 25.0171L37.537 20.8888C37.5425 19.8972 37.548 19.3405 37.6622 18.3185Z" fill="#CECABA"/>
<path d="M13.0351 21.8449C12.8869 18.407 12.6739 16.4893 12.001 13.0908C12.3604 12.2967 13.5585 11.4114 16.176 9.6202L16.9113 18.3944L13.0351 21.8449Z" fill="#EEEBDF"/>
<path d="M15.7985 22.509C14.7375 22.2014 14.14 22.0349 13.0203 21.8394C14.1648 20.8006 16.9243 18.363 16.9243 18.363C16.9529 18.3287 18.1701 18.9016 19.2892 19.2548L15.7985 22.509Z" fill="#DDDACE"/>
<path d="M16.176 9.62017L16.9153 18.3845L19.2802 19.2763L18.5773 10.7951C17.6331 10.379 17.1041 10.1433 16.176 9.62017Z" fill="#CECABA"/>
<path d="M34.1916 3.72007C32.3771 6.6944 31.4748 8.42036 30.1249 11.6306C29.3739 12.1158 27.8644 12.2478 24.6471 12.4159L28.9772 4.64173L34.1916 3.72007Z" fill="#CECABA"/>
<path d="M32.2364 1.74342C32.9574 2.54671 33.3672 2.99348 34.2009 3.73236C32.65 4.02127 28.9484 4.66155 28.9484 4.66155C28.9049 4.67574 28.202 3.5687 27.4578 2.69715L32.2364 1.74342Z" fill="#EEEBDF"/>
<path d="M24.6472 12.4159L28.9682 4.64797L27.4775 2.68356L23.2856 10.1942C23.8468 11.0291 24.1599 11.499 24.6472 12.4159Z" fill="#DDDACE"/>
<path d="M47.5826 33H5.84348H0L2.50435 35.1176L0.834783 37.5882L2.92174 39.3529L1.25217 41.8235L3.75652 44.2941L0.834783 46.7647L3.75652 48.5294L1.25217 51H5.84348H47.5826L45.913 48.8824L48 46.7647L45.4957 45L48 42.5294L45.913 40.4118L47.5826 37.5882L45.0783 35.1176L47.5826 33Z" fill="#C2AF9D"/>
<path d="M18.8028 38.7932C18.7467 39.0282 18.5896 39.3799 18.789 39.587C18.9096 39.7121 19.0862 39.6517 19.1617 39.5041C19.2454 39.3407 19.5217 37.7148 18.9754 37.9374C18.6822 38.0568 18.623 39.1396 18.8166 39.3178C19.1403 39.6156 19.2746 38.6132 19.2963 38.4067C19.3299 38.0878 18.9366 38.9284 18.927 38.952C18.854 39.1316 18.6366 39.6655 18.7441 39.5041C18.8141 39.3991 18.8612 39.3141 18.896 39.1866C18.9747 38.8982 19.0167 38.6193 18.896 38.3377C18.8511 38.233 18.7929 38.0191 18.7096 38.2135C18.6143 38.4359 18.5979 38.6998 18.651 38.9347C18.6677 39.0086 18.7366 39.2362 18.8028 39.1038" stroke="#3F3B3B" stroke-linecap="round" stroke-linejoin="round"/>
<path d="M26.4432 37.8616C26.2001 38.4256 26.1235 38.8448 26.6019 39.3593C27.0812 39.8748 26.989 38.5505 26.9677 38.3861C26.8731 37.6566 26.0093 37.7317 26.2292 38.5173C26.3229 38.8517 26.5615 38.9991 26.8952 39.0383C27.1899 39.073 27.0485 38.6983 27.0022 38.5104C26.9813 38.4253 26.7936 37.8869 26.6261 38.0824C26.437 38.303 26.4171 38.505 26.381 38.7933" stroke="#3F3B3B" stroke-linecap="round" stroke-linejoin="round"/>
<path d="M17.9995 45.9934C20.6192 45.4696 23.3633 45.2665 26.0281 45.0957C27.3286 45.0123 28.7023 44.9458 30.0005 45.0867" stroke="#3F3B3B" stroke-linecap="round" stroke-linejoin="round"/>
</svg>
