<svg width="48" height="44" viewBox="0 0 48 44" fill="none" xmlns="http://www.w3.org/2000/svg">
<path d="M8 8.53125C16.323 5.65241 20.8449 3.8083 28.5842 0C30.872 0.0547118 34.1625 1.57353 41 5L20.0891 13L8 8.53125Z" fill="#534C4C"/>
<path d="M8.93045 14.087C8.70271 11.914 8.55798 10.6952 8 8.5C11.6184 9.80435 20.1786 13 20.1786 13C20.2895 13.0264 20.0092 15.6862 20.1786 18L8.93045 14.087Z" fill="#3E3939"/>
<path d="M41 5L20.1172 13V18L40.3371 10.2812C40.4849 8.23944 40.574 7.09347 41 5Z" fill="#2D2C2C"/>
<path d="M47.5826 26H5.84348H0L2.50435 28.1176L0.834783 30.5882L2.92174 32.3529L1.25217 34.8235L3.75652 37.2941L0.834783 39.7647L3.75652 41.5294L1.25217 44H5.84348H47.5826L45.913 41.8824L48 39.7647L45.4957 38L48 35.5294L45.913 33.4118L47.5826 30.5882L45.0783 28.1176L47.5826 26Z" fill="#C2AF9D"/>
<path d="M16 30.2594C16.7075 30.6268 16.9865 31.3984 17.6605 31.7873C18.0358 32.0038 18.4418 32.1823 18.7502 32.4907" stroke="#3F3B3B" stroke-linecap="round" stroke-linejoin="round"/>
<path d="M18.5946 30C18.1009 30.7053 17.5816 31.3541 17.0148 32.0064C16.7981 32.2559 16.5102 32.7027 16.2076 32.854" stroke="#3F3B3B" stroke-linecap="round" stroke-linejoin="round"/>
<path d="M25 29.2594C25.7075 29.6268 25.9865 30.3984 26.6605 30.7873C27.0358 31.0038 27.4418 31.1823 27.7502 31.4907" stroke="#3F3B3B" stroke-linecap="round" stroke-linejoin="round"/>
<path d="M27.5946 29C27.1009 29.7053 26.5816 30.3541 26.0148 31.0064C25.7981 31.2559 25.5102 31.7027 25.2076 31.854" stroke="#3F3B3B" stroke-linecap="round" stroke-linejoin="round"/>
<path d="M16.2977 39.1731C17.1175 38.2487 18.2647 37.584 19.4169 37.1782C21.5879 36.4136 23.853 36.1039 26.1453 36.0193C27.3252 35.9758 28.5105 36.0078 29.6912 36.0078C30.0382 36.0078 30.3843 35.9844 30.7232 36.0597" stroke="#3F3B3B" stroke-linecap="round" stroke-linejoin="round"/>
<path d="M22.5764 36.7343C22.9212 37.9512 23.6724 39.1304 24.4992 40.0812C25.2905 40.9911 26.8658 40.4302 27.5752 39.7208C28.4138 38.8822 27.8271 37.7316 27.506 36.7862C27.4178 36.5266 27.2609 36.2441 27.1428 36.0078" stroke="#3F3B3B" stroke-linecap="round" stroke-linejoin="round"/>
</svg>
