<svg width="250" height="424" viewBox="0 0 250 424" fill="none" xmlns="http://www.w3.org/2000/svg">
<rect y="325" width="250" height="99" rx="15" fill="white"/>
<path fill-rule="evenodd" clip-rule="evenodd" d="M245 24C245 15.5992 245 11.3988 243.365 8.19014C241.927 5.36771 239.632 3.073 236.81 1.6349C233.601 0 229.401 0 221 0H35C26.5992 0 22.3988 0 19.1901 1.6349C16.3677 3.073 14.073 5.36771 12.6349 8.19014C11 11.3988 11 15.5992 11 24V34C11 42.4008 11 46.6012 12.6349 49.8099C14.073 52.6323 16.3677 54.927 19.1901 56.3651C22.3988 58 26.5992 58 35 58H221C229.401 58 233.601 58 236.81 56.3651C239.632 54.927 241.927 52.6323 243.365 49.8099C245 46.6012 245 42.4008 245 34V24Z" fill="white"/>
<path fill-rule="evenodd" clip-rule="evenodd" d="M11.9715 44H27C27 51.732 20.732 58 13 58H7V57.6709C8.43115 56.4697 9.61579 54.9871 10.4738 53.3032C11.5962 51.1003 11.893 48.3966 11.9715 44Z" fill="white"/>
<path d="M31.0093 31.1899L31.2417 32.7837L31.582 31.3477L33.9727 22.9141H35.3174L37.6499 31.3477L37.9819 32.8086L38.2393 31.1816L40.1152 22.9141H41.7173L38.7871 35H37.3345L34.8442 26.1929L34.6533 25.2715L34.4624 26.1929L31.8809 35H30.4282L27.5063 22.9141H29.1001L31.0093 31.1899ZM44.3806 27.106C45.0612 26.2703 45.9467 25.8525 47.0368 25.8525C48.9349 25.8525 49.8923 26.9233 49.9089 29.0649V35H48.3733V29.0566C48.3677 28.4092 48.2183 27.9305 47.925 27.6206C47.6372 27.3107 47.1862 27.1558 46.572 27.1558C46.0739 27.1558 45.6368 27.2886 45.2605 27.5542C44.8842 27.8198 44.5909 28.1685 44.3806 28.6001V35H42.8449V22.25H44.3806V27.106ZM57.3451 35C57.2566 34.8229 57.1847 34.5075 57.1293 34.0537C56.4154 34.7952 55.5632 35.166 54.5727 35.166C53.6873 35.166 52.9596 34.917 52.3896 34.4189C51.8251 33.9154 51.5429 33.279 51.5429 32.5098C51.5429 31.5745 51.8971 30.8496 52.6054 30.335C53.3193 29.8148 54.3209 29.5547 55.6103 29.5547H57.1044V28.8491C57.1044 28.3123 56.9439 27.8862 56.623 27.5708C56.302 27.2498 55.8289 27.0894 55.2035 27.0894C54.6557 27.0894 54.1964 27.2277 53.8256 27.5044C53.4548 27.7811 53.2694 28.1159 53.2694 28.5088H51.7255C51.7255 28.0605 51.8832 27.6289 52.1986 27.2139C52.5196 26.7933 52.9513 26.4613 53.4936 26.2178C54.0414 25.9743 54.6418 25.8525 55.2948 25.8525C56.3297 25.8525 57.1404 26.1126 57.727 26.6328C58.3136 27.1475 58.6179 27.8586 58.6401 28.7661V32.8999C58.6401 33.7244 58.7452 34.3802 58.9555 34.8672V35H57.3451ZM54.7968 33.8296C55.2782 33.8296 55.7348 33.7051 56.1664 33.4561C56.5981 33.207 56.9107 32.8833 57.1044 32.4849V30.6421H55.9008C54.0193 30.6421 53.0785 31.1927 53.0785 32.2939C53.0785 32.7754 53.239 33.1517 53.56 33.4229C53.8809 33.694 54.2932 33.8296 54.7968 33.8296ZM62.7228 23.8438V26.0186H64.3995V27.2056H62.7228V32.7754C62.7228 33.1351 62.7975 33.4062 62.9469 33.5889C63.0963 33.766 63.3509 33.8545 63.7106 33.8545C63.8877 33.8545 64.1311 33.8213 64.441 33.7549V35C64.0371 35.1107 63.6442 35.166 63.2623 35.166C62.5761 35.166 62.0587 34.9585 61.7101 34.5435C61.3615 34.1284 61.1871 33.5391 61.1871 32.7754V27.2056H59.5519V26.0186H61.1871V23.8438H62.7228ZM69.2281 30.4346C69.2281 29.0566 69.5546 27.9499 70.2076 27.1143C70.8606 26.2731 71.7155 25.8525 72.7725 25.8525C73.8239 25.8525 74.6568 26.2122 75.271 26.9316V22.25H76.8067V35H75.3955L75.3208 34.0371C74.7066 34.7897 73.8516 35.166 72.7559 35.166C71.7155 35.166 70.8661 34.7399 70.2076 33.8877C69.5546 33.0355 69.2281 31.9232 69.2281 30.5508V30.4346ZM70.7637 30.6089C70.7637 31.6271 70.974 32.424 71.3946 32.9995C71.8151 33.575 72.3962 33.8628 73.1377 33.8628C74.1117 33.8628 74.8228 33.4256 75.271 32.5513V28.4258C74.8117 27.5791 74.1062 27.1558 73.1543 27.1558C72.4017 27.1558 71.8151 27.4463 71.3946 28.0273C70.974 28.6084 70.7637 29.4689 70.7637 30.6089ZM78.3826 30.4263C78.3826 29.5464 78.5541 28.755 78.8972 28.0522C79.2458 27.3494 79.7273 26.8071 80.3416 26.4253C80.9613 26.0435 81.6669 25.8525 82.4583 25.8525C83.6812 25.8525 84.669 26.2759 85.4216 27.1226C86.1798 27.9692 86.5588 29.0954 86.5588 30.501V30.6089C86.5588 31.4832 86.3901 32.269 86.0525 32.9663C85.7205 33.658 85.2418 34.1976 84.6165 34.585C83.9967 34.9723 83.2828 35.166 82.4749 35.166C81.2574 35.166 80.2696 34.7427 79.5115 33.896C78.7589 33.0493 78.3826 31.9287 78.3826 30.5342V30.4263ZM79.9265 30.6089C79.9265 31.605 80.1562 32.4046 80.6155 33.0078C81.0803 33.611 81.7001 33.9126 82.4749 33.9126C83.2551 33.9126 83.8749 33.6082 84.3342 32.9995C84.7935 32.3853 85.0232 31.5275 85.0232 30.4263C85.0232 29.4412 84.788 28.6444 84.3176 28.0356C83.8528 27.4214 83.233 27.1143 82.4583 27.1143C81.7001 27.1143 81.0886 27.4159 80.6238 28.019C80.1589 28.6222 79.9265 29.4855 79.9265 30.6089ZM94.8239 32.7505L96.9157 26.0186H98.5592L94.9484 36.3862C94.3895 37.8804 93.5013 38.6274 92.2839 38.6274L91.9933 38.6025L91.4206 38.4946V37.2495L91.8356 37.2827C92.3558 37.2827 92.7598 37.1776 93.0475 36.9673C93.3408 36.757 93.5815 36.3724 93.7697 35.8135L94.11 34.9004L90.9059 26.0186H92.5827L94.8239 32.7505ZM98.9896 30.4263C98.9896 29.5464 99.1612 28.755 99.5043 28.0522C99.8529 27.3494 100.334 26.8071 100.949 26.4253C101.568 26.0435 102.274 25.8525 103.065 25.8525C104.288 25.8525 105.276 26.2759 106.029 27.1226C106.787 27.9692 107.166 29.0954 107.166 30.501V30.6089C107.166 31.4832 106.997 32.269 106.66 32.9663C106.328 33.658 105.849 34.1976 105.224 34.585C104.604 34.9723 103.89 35.166 103.082 35.166C101.864 35.166 100.877 34.7427 100.119 33.896C99.3659 33.0493 98.9896 31.9287 98.9896 30.5342V30.4263ZM100.534 30.6089C100.534 31.605 100.763 32.4046 101.223 33.0078C101.687 33.611 102.307 33.9126 103.082 33.9126C103.862 33.9126 104.482 33.6082 104.941 32.9995C105.401 32.3853 105.63 31.5275 105.63 30.4263C105.63 29.4412 105.395 28.6444 104.925 28.0356C104.46 27.4214 103.84 27.1143 103.065 27.1143C102.307 27.1143 101.696 27.4159 101.231 28.019C100.766 28.6222 100.534 29.4855 100.534 30.6089ZM114.229 34.1118C113.631 34.8146 112.754 35.166 111.597 35.166C110.64 35.166 109.909 34.8893 109.406 34.3359C108.908 33.777 108.656 32.9525 108.65 31.8623V26.0186H110.186V31.8208C110.186 33.1821 110.739 33.8628 111.846 33.8628C113.019 33.8628 113.8 33.4256 114.187 32.5513V26.0186H115.723V35H114.262L114.229 34.1118ZM122.22 35V27.2056H120.8V26.0186H122.22V25.0972C122.22 24.1343 122.477 23.39 122.992 22.8643C123.506 22.3385 124.234 22.0757 125.175 22.0757C125.529 22.0757 125.88 22.1227 126.229 22.2168L126.146 23.4619C125.886 23.4121 125.609 23.3872 125.316 23.3872C124.818 23.3872 124.433 23.5339 124.162 23.8271C123.891 24.1149 123.755 24.5299 123.755 25.0723V26.0186H125.673V27.2056H123.755V35H122.22ZM130.494 35.166C129.277 35.166 128.286 34.7676 127.523 33.9707C126.759 33.1683 126.377 32.0975 126.377 30.7583V30.4761C126.377 29.5851 126.546 28.791 126.883 28.0938C127.227 27.391 127.703 26.8431 128.311 26.4502C128.925 26.0518 129.59 25.8525 130.303 25.8525C131.471 25.8525 132.379 26.2371 133.026 27.0063C133.674 27.7756 133.997 28.8768 133.997 30.3101V30.9492H127.913C127.935 31.8346 128.192 32.5513 128.685 33.0991C129.183 33.6414 129.814 33.9126 130.577 33.9126C131.12 33.9126 131.579 33.8019 131.955 33.5806C132.332 33.3592 132.661 33.0659 132.943 32.7007L133.881 33.4312C133.128 34.5877 132 35.166 130.494 35.166ZM130.303 27.1143C129.684 27.1143 129.163 27.3411 128.743 27.7949C128.322 28.2432 128.062 28.874 127.963 29.6875H132.462V29.5713C132.417 28.791 132.207 28.1878 131.831 27.7617C131.454 27.3301 130.945 27.1143 130.303 27.1143ZM139.101 35.166C137.884 35.166 136.893 34.7676 136.129 33.9707C135.366 33.1683 134.984 32.0975 134.984 30.7583V30.4761C134.984 29.5851 135.153 28.791 135.49 28.0938C135.833 27.391 136.309 26.8431 136.918 26.4502C137.532 26.0518 138.196 25.8525 138.91 25.8525C140.078 25.8525 140.985 26.2371 141.633 27.0063C142.28 27.7756 142.604 28.8768 142.604 30.3101V30.9492H136.519C136.542 31.8346 136.799 32.5513 137.291 33.0991C137.789 33.6414 138.42 33.9126 139.184 33.9126C139.726 33.9126 140.186 33.8019 140.562 33.5806C140.938 33.3592 141.267 33.0659 141.55 32.7007L142.488 33.4312C141.735 34.5877 140.606 35.166 139.101 35.166ZM138.91 27.1143C138.29 27.1143 137.77 27.3411 137.35 27.7949C136.929 28.2432 136.669 28.874 136.569 29.6875H141.068V29.5713C141.024 28.791 140.814 28.1878 140.437 27.7617C140.061 27.3301 139.552 27.1143 138.91 27.1143ZM145.649 35H144.113V22.25H145.649V35ZM153.184 35H151.648V22.25H153.184V35ZM156.909 35H155.374V26.0186H156.909V35ZM155.249 23.6362C155.249 23.3872 155.324 23.1769 155.473 23.0054C155.628 22.8338 155.855 22.748 156.154 22.748C156.453 22.748 156.68 22.8338 156.835 23.0054C156.99 23.1769 157.067 23.3872 157.067 23.6362C157.067 23.8853 156.99 24.0928 156.835 24.2588C156.68 24.4248 156.453 24.5078 156.154 24.5078C155.855 24.5078 155.628 24.4248 155.473 24.2588C155.324 24.0928 155.249 23.8853 155.249 23.6362ZM161.474 30.8413L160.511 31.8457V35H158.975V22.25H160.511V29.9614L161.332 28.9736L164.13 26.0186H165.998L162.503 29.7705L166.404 35H164.603L161.474 30.8413ZM170.736 35.166C169.519 35.166 168.528 34.7676 167.764 33.9707C167.001 33.1683 166.619 32.0975 166.619 30.7583V30.4761C166.619 29.5851 166.788 28.791 167.125 28.0938C167.468 27.391 167.944 26.8431 168.553 26.4502C169.167 26.0518 169.831 25.8525 170.545 25.8525C171.713 25.8525 172.62 26.2371 173.268 27.0063C173.915 27.7756 174.239 28.8768 174.239 30.3101V30.9492H168.154C168.177 31.8346 168.434 32.5513 168.926 33.0991C169.424 33.6414 170.055 33.9126 170.819 33.9126C171.361 33.9126 171.821 33.8019 172.197 33.5806C172.573 33.3592 172.902 33.0659 173.185 32.7007L174.123 33.4312C173.37 34.5877 172.241 35.166 170.736 35.166ZM170.545 27.1143C169.925 27.1143 169.405 27.3411 168.985 27.7949C168.564 28.2432 168.304 28.874 168.204 29.6875H172.703V29.5713C172.659 28.791 172.449 28.1878 172.072 27.7617C171.696 27.3301 171.187 27.1143 170.545 27.1143ZM181.508 23.8438V26.0186H183.185V27.2056H181.508V32.7754C181.508 33.1351 181.583 33.4062 181.732 33.5889C181.881 33.766 182.136 33.8545 182.496 33.8545C182.673 33.8545 182.916 33.8213 183.226 33.7549V35C182.822 35.1107 182.429 35.166 182.047 35.166C181.361 35.166 180.844 34.9585 180.495 34.5435C180.147 34.1284 179.972 33.5391 179.972 32.7754V27.2056H178.337V26.0186H179.972V23.8438H181.508ZM184.005 30.4263C184.005 29.5464 184.177 28.755 184.52 28.0522C184.868 27.3494 185.35 26.8071 185.964 26.4253C186.584 26.0435 187.289 25.8525 188.081 25.8525C189.304 25.8525 190.292 26.2759 191.044 27.1226C191.802 27.9692 192.181 29.0954 192.181 30.501V30.6089C192.181 31.4832 192.013 32.269 191.675 32.9663C191.343 33.658 190.864 34.1976 190.239 34.585C189.619 34.9723 188.905 35.166 188.097 35.166C186.88 35.166 185.892 34.7427 185.134 33.896C184.381 33.0493 184.005 31.9287 184.005 30.5342V30.4263ZM185.549 30.6089C185.549 31.605 185.779 32.4046 186.238 33.0078C186.703 33.611 187.323 33.9126 188.097 33.9126C188.878 33.9126 189.498 33.6082 189.957 32.9995C190.416 32.3853 190.646 31.5275 190.646 30.4263C190.646 29.4412 190.411 28.6444 189.94 28.0356C189.475 27.4214 188.856 27.1143 188.081 27.1143C187.323 27.1143 186.711 27.4159 186.246 28.019C185.782 28.6222 185.549 29.4855 185.549 30.6089ZM193.326 30.4346C193.326 29.0566 193.652 27.9499 194.305 27.1143C194.958 26.2731 195.813 25.8525 196.87 25.8525C197.922 25.8525 198.754 26.2122 199.369 26.9316V22.25H200.904V35H199.493L199.418 34.0371C198.804 34.7897 197.949 35.166 196.854 35.166C195.813 35.166 194.964 34.7399 194.305 33.8877C193.652 33.0355 193.326 31.9232 193.326 30.5508V30.4346ZM194.861 30.6089C194.861 31.6271 195.072 32.424 195.492 32.9995C195.913 33.575 196.494 33.8628 197.235 33.8628C198.209 33.8628 198.92 33.4256 199.369 32.5513V28.4258C198.909 27.5791 198.204 27.1558 197.252 27.1558C196.499 27.1558 195.913 27.4463 195.492 28.0273C195.072 28.6084 194.861 29.4689 194.861 30.6089ZM208.432 35C208.343 34.8229 208.271 34.5075 208.216 34.0537C207.502 34.7952 206.65 35.166 205.659 35.166C204.774 35.166 204.046 34.917 203.476 34.4189C202.912 33.9154 202.63 33.279 202.63 32.5098C202.63 31.5745 202.984 30.8496 203.692 30.335C204.406 29.8148 205.408 29.5547 206.697 29.5547H208.191V28.8491C208.191 28.3123 208.031 27.8862 207.71 27.5708C207.389 27.2498 206.916 27.0894 206.29 27.0894C205.742 27.0894 205.283 27.2277 204.912 27.5044C204.542 27.7811 204.356 28.1159 204.356 28.5088H202.812C202.812 28.0605 202.97 27.6289 203.285 27.2139C203.606 26.7933 204.038 26.4613 204.58 26.2178C205.128 25.9743 205.729 25.8525 206.382 25.8525C207.416 25.8525 208.227 26.1126 208.814 26.6328C209.4 27.1475 209.705 27.8586 209.727 28.7661V32.8999C209.727 33.7244 209.832 34.3802 210.042 34.8672V35H208.432ZM205.883 33.8296C206.365 33.8296 206.821 33.7051 207.253 33.4561C207.685 33.207 207.997 32.8833 208.191 32.4849V30.6421H206.988C205.106 30.6421 204.165 31.1927 204.165 32.2939C204.165 32.7754 204.326 33.1517 204.647 33.4229C204.968 33.694 205.38 33.8296 205.883 33.8296ZM214.532 32.7505L216.623 26.0186H218.267L214.656 36.3862C214.097 37.8804 213.209 38.6274 211.992 38.6274L211.701 38.6025L211.128 38.4946V37.2495L211.543 37.2827C212.064 37.2827 212.468 37.1776 212.755 36.9673C213.049 36.757 213.289 36.3724 213.477 35.8135L213.818 34.9004L210.614 26.0186H212.29L214.532 32.7505ZM221.038 31.5967C221.049 30.9382 221.124 30.418 221.262 30.0361C221.401 29.6543 221.683 29.231 222.109 28.7661L223.196 27.6455C223.661 27.1198 223.894 26.5553 223.894 25.9521C223.894 25.3711 223.741 24.9173 223.437 24.5908C223.133 24.2588 222.69 24.0928 222.109 24.0928C221.545 24.0928 221.091 24.2422 220.748 24.541C220.405 24.8398 220.233 25.241 220.233 25.7446H218.697C218.708 24.8481 219.027 24.126 219.652 23.5781C220.283 23.0247 221.102 22.748 222.109 22.748C223.155 22.748 223.968 23.0303 224.549 23.5947C225.136 24.1536 225.429 24.9229 225.429 25.9023C225.429 26.8708 224.981 27.8254 224.085 28.7661L223.18 29.6626C222.776 30.1108 222.574 30.7555 222.574 31.5967H221.038ZM220.972 34.228C220.972 33.979 221.046 33.7715 221.196 33.6055C221.351 33.4339 221.578 33.3481 221.877 33.3481C222.175 33.3481 222.402 33.4339 222.557 33.6055C222.712 33.7715 222.79 33.979 222.79 34.228C222.79 34.4771 222.712 34.6846 222.557 34.8506C222.402 35.0111 222.175 35.0913 221.877 35.0913C221.578 35.0913 221.351 35.0111 221.196 34.8506C221.046 34.6846 220.972 34.4771 220.972 34.228Z" fill="#3F3B3B"/>
</svg>
